<svg xmlns="http://www.w3.org/2000/svg" width="1em" height="1em" viewBox="0 0 24 24"><path fill="currentColor" fill-rule="evenodd" d="M19.449 8.448L16.388 11a4.52 4.52 0 0 1 0 2.002l3.061 2.55a8.275 8.275 0 0 0 0-7.103M15.552 19.45L13 16.388a4.52 4.52 0 0 1-2.002 0l-2.55 3.061a8.275 8.275 0 0 0 7.103 0M4.55 15.552L7.612 13a4.52 4.52 0 0 1 0-2.002L4.551 8.45a8.275 8.275 0 0 0 0 7.103M8.448 4.55L11 7.612a4.52 4.52 0 0 1 2.002 0l2.55-3.061a8.275 8.275 0 0 0-7.103 0m8.657-.86a9.776 9.776 0 0 1 1.79 1.415a9.776 9.776 0 0 1 1.414 1.788a9.764 9.764 0 0 1 0 10.212a9.777 9.777 0 0 1-1.415 1.788a9.777 9.777 0 0 1-1.788 1.415a9.764 9.764 0 0 1-10.212 0a9.776 9.776 0 0 1-1.788-1.415a9.776 9.776 0 0 1-1.415-1.788a9.764 9.764 0 0 1 0-10.212a9.774 9.774 0 0 1 1.415-1.788A9.774 9.774 0 0 1 6.894 3.69a9.764 9.764 0 0 1 10.212 0m-2.984 6.19a2.985 2.985 0 0 0-1.11-.704a3.015 3.015 0 0 0-2.022 0a2.985 2.985 0 0 0-1.11.704c-.326.325-.56.705-.704 1.11a3.015 3.015 0 0 0 0 2.022c.144.405.378.785.704 1.11c.325.326.705.56 1.11.704c.652.233 1.37.233 2.022 0a2.985 2.985 0 0 0 1.11-.704c.326-.325.56-.705.704-1.11a3.016 3.016 0 0 0 0-2.022a2.985 2.985 0 0 0-.704-1.11" clip-rule="evenodd"/></svg>