<svg xmlns="http://www.w3.org/2000/svg" width="1em" height="1em" viewBox="0 0 20 20"><g fill="currentColor"><path d="m3.196 12.87l-.825.483a.75.75 0 0 0 0 1.294l7.25 4.25a.75.75 0 0 0 .758 0l7.25-4.25a.75.75 0 0 0 0-1.294l-.825-.484l-5.666 3.322a2.25 2.25 0 0 1-2.276 0z"/><path d="m3.196 8.87l-.825.483a.75.75 0 0 0 0 1.294l7.25 4.25a.75.75 0 0 0 .758 0l7.25-4.25a.75.75 0 0 0 0-1.294l-.825-.484l-5.666 3.322a2.25 2.25 0 0 1-2.276 0z"/><path d="M10.38 1.103a.75.75 0 0 0-.76 0l-7.25 4.25a.75.75 0 0 0 0 1.294l7.25 4.25a.75.75 0 0 0 .76 0l7.25-4.25a.75.75 0 0 0 0-1.294z"/></g></svg>