<svg xmlns="http://www.w3.org/2000/svg" width="1em" height="1em" viewBox="0 0 20 20"><path fill="currentColor" d="M4.25 2A2.25 2.25 0 0 0 2 4.25v2a.75.75 0 0 0 1.5 0v-2a.75.75 0 0 1 .75-.75h2a.75.75 0 0 0 0-1.5zm9.5 0a.75.75 0 0 0 0 1.5h2a.75.75 0 0 1 .75.75v2a.75.75 0 0 0 1.5 0v-2A2.25 2.25 0 0 0 15.75 2zM3.5 13.75a.75.75 0 0 0-1.5 0v2A2.25 2.25 0 0 0 4.25 18h2a.75.75 0 0 0 0-1.5h-2a.75.75 0 0 1-.75-.75zm14.5 0a.75.75 0 0 0-1.5 0v2a.75.75 0 0 1-.75.75h-2a.75.75 0 0 0 0 1.5h2A2.25 2.25 0 0 0 18 15.75zM7 10a3 3 0 1 1 6 0a3 3 0 0 1-6 0"/></svg>