<svg xmlns="http://www.w3.org/2000/svg" width="1em" height="1em" viewBox="0 0 24 24"><path fill="currentColor" fill-rule="evenodd" d="M11.622 1.602a.75.75 0 0 1 .756 0l2.25 1.313a.75.75 0 0 1-.756 1.295L12 3.118L10.128 4.21a.75.75 0 1 1-.756-1.295zM5.898 5.81a.75.75 0 0 1-.27 1.025l-1.14.665l1.14.665a.75.75 0 1 1-.756 1.295L3.75 8.806v.944a.75.75 0 0 1-1.5 0V7.5a.75.75 0 0 1 .372-.648l2.25-1.312a.75.75 0 0 1 1.026.27m12.204 0a.75.75 0 0 1 1.026-.27l2.25 1.312a.75.75 0 0 1 .372.648v2.25a.75.75 0 0 1-1.5 0v-.944l-1.122.654a.75.75 0 1 1-.756-1.295l1.14-.665l-1.14-.665a.75.75 0 0 1-.27-1.025m-9 5.25a.75.75 0 0 1 1.026-.27L12 11.882l1.872-1.092a.75.75 0 1 1 .756 1.295l-1.878 1.096V15a.75.75 0 0 1-1.5 0v-1.82l-1.878-1.095a.75.75 0 0 1-.27-1.025M3 13.5a.75.75 0 0 1 .75.75v1.82l1.878 1.095a.75.75 0 1 1-.756 1.295l-2.25-1.312a.75.75 0 0 1-.372-.648v-2.25A.75.75 0 0 1 3 13.5m18 0a.75.75 0 0 1 .75.75v2.25a.75.75 0 0 1-.372.648l-2.25 1.312a.75.75 0 1 1-.756-1.295l1.878-1.096V14.25a.75.75 0 0 1 .75-.75m-9 5.25a.75.75 0 0 1 .75.75v.944l1.122-.654a.75.75 0 1 1 .756 1.295l-2.25 1.313a.75.75 0 0 1-.756 0l-2.25-1.313a.75.75 0 1 1 .756-1.295l1.122.654V19.5a.75.75 0 0 1 .75-.75" clip-rule="evenodd"/></svg>