<svg xmlns="http://www.w3.org/2000/svg" width="1em" height="1em" viewBox="0 0 20 20"><path fill="currentColor" fill-rule="evenodd" d="M1 2.75A.75.75 0 0 1 1.75 2h10.5a.75.75 0 0 1 0 1.5H12v13.75a.75.75 0 0 1-.75.75h-1.5a.75.75 0 0 1-.75-.75v-2.5a.75.75 0 0 0-.75-.75h-2.5a.75.75 0 0 0-.75.75v2.5a.75.75 0 0 1-.75.75h-2.5a.75.75 0 0 1 0-1.5H2v-13h-.25A.75.75 0 0 1 1 2.75M4 5.5a.5.5 0 0 1 .5-.5h1a.5.5 0 0 1 .5.5v1a.5.5 0 0 1-.5.5h-1a.5.5 0 0 1-.5-.5zM4.5 9a.5.5 0 0 0-.5.5v1a.5.5 0 0 0 .5.5h1a.5.5 0 0 0 .5-.5v-1a.5.5 0 0 0-.5-.5zM8 5.5a.5.5 0 0 1 .5-.5h1a.5.5 0 0 1 .5.5v1a.5.5 0 0 1-.5.5h-1a.5.5 0 0 1-.5-.5zM8.5 9a.5.5 0 0 0-.5.5v1a.5.5 0 0 0 .5.5h1a.5.5 0 0 0 .5-.5v-1a.5.5 0 0 0-.5-.5zm5.75-3a.75.75 0 0 0-.75.75V17a1 1 0 0 0 1 1h3.75a.75.75 0 0 0 0-1.5H18v-9h.25a.75.75 0 0 0 0-1.5zm.5 3.5a.5.5 0 0 1 .5-.5h1a.5.5 0 0 1 .5.5v1a.5.5 0 0 1-.5.5h-1a.5.5 0 0 1-.5-.5zm.5 3.5a.5.5 0 0 0-.5.5v1a.5.5 0 0 0 .5.5h1a.5.5 0 0 0 .5-.5v-1a.5.5 0 0 0-.5-.5z" clip-rule="evenodd"/></svg>