<svg xmlns="http://www.w3.org/2000/svg" width="1em" height="1em" viewBox="0 0 16 16"><path fill="currentColor" d="M3.75 2A1.75 1.75 0 0 0 2 3.75v1.5a.75.75 0 0 0 1.5 0v-1.5a.25.25 0 0 1 .25-.25h1.5a.75.75 0 0 0 0-1.5zm7 0a.75.75 0 0 0 0 1.5h1.5a.25.25 0 0 1 .25.25v1.5a.75.75 0 0 0 1.5 0v-1.5A1.75 1.75 0 0 0 12.25 2zM3.5 10.75a.75.75 0 0 0-1.5 0v1.5c0 .966.784 1.75 1.75 1.75h1.5a.75.75 0 0 0 0-1.5h-1.5a.25.25 0 0 1-.25-.25zm10.5 0a.75.75 0 0 0-1.5 0v1.5a.25.25 0 0 1-.25.25h-1.5a.75.75 0 0 0 0 1.5h1.5A1.75 1.75 0 0 0 14 12.25zM8 10a2 2 0 1 0 0-4a2 2 0 0 0 0 4"/></svg>