<svg xmlns="http://www.w3.org/2000/svg" width="1em" height="1em" viewBox="0 0 20 20"><g fill="currentColor"><path d="M4.214 3.227a.75.75 0 0 0-1.156-.955a8.97 8.97 0 0 0-1.856 3.825a.75.75 0 0 0 1.466.316a7.47 7.47 0 0 1 1.546-3.186m12.728-.955a.75.75 0 0 0-1.157.955a7.47 7.47 0 0 1 1.547 3.186a.75.75 0 0 0 1.466-.316a8.971 8.971 0 0 0-1.856-3.825"/><path fill-rule="evenodd" d="M10 2a6 6 0 0 0-6 6c0 1.887-.454 3.665-1.257 5.234a.75.75 0 0 0 .515 1.076a32.91 32.91 0 0 0 3.256.508a3.5 3.5 0 0 0 6.972 0a32.903 32.903 0 0 0 3.256-.508a.75.75 0 0 0 .515-1.076A11.448 11.448 0 0 1 16 8a6 6 0 0 0-6-6m0 14.5a2 2 0 0 1-1.95-1.557a33.54 33.54 0 0 0 3.9 0A2 2 0 0 1 10 16.5" clip-rule="evenodd"/></g></svg>