<svg xmlns="http://www.w3.org/2000/svg" width="1em" height="1em" viewBox="0 0 20 20"><path fill="currentColor" fill-rule="evenodd" d="M2 3.75A.75.75 0 0 1 2.75 3h11.5a.75.75 0 0 1 0 1.5H2.75A.75.75 0 0 1 2 3.75M2 7.5a.75.75 0 0 1 .75-.75h6.365a.75.75 0 0 1 0 1.5H2.75A.75.75 0 0 1 2 7.5M14 7a.75.75 0 0 1 .55.24l3.25 3.5a.75.75 0 1 1-1.1 1.02l-1.95-2.1v6.59a.75.75 0 0 1-1.5 0V9.66l-1.95 2.1a.75.75 0 1 1-1.1-1.02l3.25-3.5A.75.75 0 0 1 14 7M2 11.25a.75.75 0 0 1 .75-.75H7A.75.75 0 0 1 7 12H2.75a.75.75 0 0 1-.75-.75" clip-rule="evenodd"/></svg>