<svg xmlns="http://www.w3.org/2000/svg" width="1em" height="1em" viewBox="0 0 16 16"><path fill="currentColor" fill-rule="evenodd" d="M12.95 3.05a7 7 0 1 0-9.9 9.9a7 7 0 0 0 9.9-9.9m-7.262-.042a5.516 5.516 0 0 1 4.624 0L8.698 5.082a3.016 3.016 0 0 0-1.396 0zm-2.68 2.68a5.516 5.516 0 0 0 0 4.624l2.074-1.614a3.015 3.015 0 0 1 0-1.396zm2.68 7.304l1.614-2.074c.458.11.938.11 1.396 0l1.614 2.074a5.516 5.516 0 0 1-4.624 0m7.304-2.68a5.516 5.516 0 0 0 0-4.624l-2.074 1.614c.11.458.11.938 0 1.396zM6.94 6.939a1.5 1.5 0 1 1 2.122 2.122A1.5 1.5 0 0 1 6.94 6.939" clip-rule="evenodd"/></svg>