<svg xmlns="http://www.w3.org/2000/svg" width="1em" height="1em" viewBox="0 0 20 20"><path fill="currentColor" fill-rule="evenodd" d="M3.75 2A1.75 1.75 0 0 0 2 3.75v3.5C2 8.216 2.784 9 3.75 9h3.5A1.75 1.75 0 0 0 9 7.25v-3.5A1.75 1.75 0 0 0 7.25 2zM3.5 3.75a.25.25 0 0 1 .25-.25h3.5a.25.25 0 0 1 .25.25v3.5a.25.25 0 0 1-.25.25h-3.5a.25.25 0 0 1-.25-.25zM3.75 11A1.75 1.75 0 0 0 2 12.75v3.5c0 .966.784 1.75 1.75 1.75h3.5A1.75 1.75 0 0 0 9 16.25v-3.5A1.75 1.75 0 0 0 7.25 11zm-.25 1.75a.25.25 0 0 1 .25-.25h3.5a.25.25 0 0 1 .25.25v3.5a.25.25 0 0 1-.25.25h-3.5a.25.25 0 0 1-.25-.25zm7.5-9c0-.966.784-1.75 1.75-1.75h3.5c.966 0 1.75.784 1.75 1.75v3.5A1.75 1.75 0 0 1 16.25 9h-3.5A1.75 1.75 0 0 1 11 7.25zm1.75-.25a.25.25 0 0 0-.25.25v3.5c0 .138.112.25.25.25h3.5a.25.25 0 0 0 .25-.25v-3.5a.25.25 0 0 0-.25-.25zm-7.26 1a1 1 0 0 0-1 1v.01a1 1 0 0 0 1 1h.01a1 1 0 0 0 1-1V5.5a1 1 0 0 0-1-1zm9 0a1 1 0 0 0-1 1v.01a1 1 0 0 0 1 1h.01a1 1 0 0 0 1-1V5.5a1 1 0 0 0-1-1zm-9 9a1 1 0 0 0-1 1v.01a1 1 0 0 0 1 1h.01a1 1 0 0 0 1-1v-.01a1 1 0 0 0-1-1zm9 0a1 1 0 0 0-1 1v.01a1 1 0 0 0 1 1h.01a1 1 0 0 0 1-1v-.01a1 1 0 0 0-1-1zm-3.5-1.5a1 1 0 0 1 1-1H12a1 1 0 0 1 1 1v.01a1 1 0 0 1-1 1h-.01a1 1 0 0 1-1-1zm6-1a1 1 0 0 0-1 1v.01a1 1 0 0 0 1 1H17a1 1 0 0 0 1-1V12a1 1 0 0 0-1-1zm-1 6a1 1 0 0 1 1-1H17a1 1 0 0 1 1 1v.01a1 1 0 0 1-1 1h-.01a1 1 0 0 1-1-1zm-4-1a1 1 0 0 0-1 1v.01a1 1 0 0 0 1 1H12a1 1 0 0 0 1-1V17a1 1 0 0 0-1-1z" clip-rule="evenodd"/></svg>