<svg xmlns="http://www.w3.org/2000/svg" width="1em" height="1em" viewBox="0 0 20 20"><g fill="currentColor"><path fill-rule="evenodd" d="M2.22 2.22a.75.75 0 0 1 1.06 0l14.5 14.5a.75.75 0 1 1-1.06 1.06L2.22 3.28a.75.75 0 0 1 0-1.06" clip-rule="evenodd"/><path d="M4.73 7.912L2.191 10.75A.75.75 0 0 0 2.75 12h6.068zm4.503 4.503l-1.216 5.678a.75.75 0 0 0 1.292.657l2.956-3.303zm6.037-.327l2.539-2.838A.75.75 0 0 0 17.25 8h-6.068zm-4.503-4.503l1.216-5.678a.75.75 0 0 0-1.292-.657L7.735 4.553z"/></g></svg>