<svg xmlns="http://www.w3.org/2000/svg" width="1em" height="1em" viewBox="0 0 16 16"><path fill="currentColor" d="M4.5 7c.681 0 1.3-.273 1.75-.715C6.7 6.727 7.319 7 8 7s1.3-.273 1.75-.715A2.5 2.5 0 1 0 11.5 2h-7a2.5 2.5 0 0 0 0 5m1.75 1.097A3.986 3.986 0 0 1 4.5 8.5A4 4 0 0 1 3 8.21v4.29h-.25a.75.75 0 0 0 0 1.5h.5a.754.754 0 0 0 .138-.013A.5.5 0 0 0 3.5 14H6a.5.5 0 0 0 .5-.5v-3A.5.5 0 0 1 7 10h2a.5.5 0 0 1 .5.5v3a.5.5 0 0 0 .5.5h2.5a.5.5 0 0 0 .112-.013c.045.009.09.013.138.013h.5a.75.75 0 1 0 0-1.5H13V8.21a4 4 0 0 1-1.5.29a3.986 3.986 0 0 1-1.75-.403A3.986 3.986 0 0 1 8 8.5a3.986 3.986 0 0 1-1.75-.403"/></svg>