<svg xmlns="http://www.w3.org/2000/svg" width="1em" height="1em" viewBox="0 0 24 24"><path fill="currentColor" fill-rule="evenodd" d="M17.834 6.166a8.25 8.25 0 1 0 0 11.668a.75.75 0 0 1 1.06 1.06c-3.807 3.808-9.98 3.808-13.788 0c-3.808-3.807-3.808-9.98 0-13.788c3.807-3.808 9.98-3.808 13.788 0A9.722 9.722 0 0 1 21.75 12c0 .975-.296 1.887-.809 2.571c-.514.685-1.28 1.179-2.191 1.179c-.904 0-1.666-.487-2.18-1.164a5.25 5.25 0 1 1-.82-6.26V8.25a.75.75 0 0 1 1.5 0V12c0 .682.208 1.27.509 1.671c.3.401.659.579.991.579c.332 0 .69-.178.991-.579c.3-.4.509-.99.509-1.671a8.222 8.222 0 0 0-2.416-5.834M15.75 12a3.75 3.75 0 1 0-7.5 0a3.75 3.75 0 0 0 7.5 0" clip-rule="evenodd"/></svg>