<svg xmlns="http://www.w3.org/2000/svg" width="1em" height="1em" viewBox="0 0 16 16"><g fill="currentColor"><path fill-rule="evenodd" d="M4 7.379v-.904l6.743 6.743A3 3 0 0 1 5 12H3a1 1 0 0 1-1-1v-.586a1 1 0 0 1 .293-.707L3.56 8.44A1.5 1.5 0 0 0 4 7.38M6.5 12a1.5 1.5 0 0 0 3 0z" clip-rule="evenodd"/><path d="M14 11a.997.997 0 0 1-.096.429L4.92 2.446A4 4 0 0 1 12 5v2.379c0 .398.158.779.44 1.06l1.267 1.268a1 1 0 0 1 .293.707zM2.22 2.22a.75.75 0 0 1 1.06 0l10.5 10.5a.75.75 0 1 1-1.06 1.06L2.22 3.28a.75.75 0 0 1 0-1.06"/></g></svg>