<svg xmlns="http://www.w3.org/2000/svg" width="1em" height="1em" viewBox="0 0 16 16"><g fill="currentColor" fill-rule="evenodd" clip-rule="evenodd"><path d="M8.914 6.025a.75.75 0 0 1 1.06 0a3.5 3.5 0 0 1 0 4.95l-2 2a3.5 3.5 0 0 1-5.396-4.402a.75.75 0 0 1 1.251.827a2 2 0 0 0 3.085 2.514l2-2a2 2 0 0 0 0-2.828a.75.75 0 0 1 0-1.06"/><path d="M7.086 9.975a.75.75 0 0 1-1.06 0a3.5 3.5 0 0 1 0-4.95l2-2a3.5 3.5 0 0 1 5.396 4.402a.75.75 0 0 1-1.251-.827a2 2 0 0 0-3.085-2.514l-2 2a2 2 0 0 0 0 2.828a.75.75 0 0 1 0 1.06"/></g></svg>