<svg xmlns="http://www.w3.org/2000/svg" width="1em" height="1em" viewBox="0 0 24 24"><path fill="none" stroke="currentColor" stroke-linecap="round" stroke-linejoin="round" stroke-width="1.5" d="M5.25 14.25h13.5m-13.5 0a3 3 0 0 1-3-3m3 3a3 3 0 1 0 0 6h13.5a3 3 0 1 0 0-6m-16.5-3a3 3 0 0 1 3-3h13.5a3 3 0 0 1 3 3m-19.5 0a4.5 4.5 0 0 1 .9-2.7L5.738 5.1a3.375 3.375 0 0 1 2.7-1.35h7.124c1.063 0 2.063.5 2.7 1.35l2.588 3.45a4.5 4.5 0 0 1 .9 2.7m0 0a3 3 0 0 1-3 3m0 3h.008v.008h-.008zm0-6h.008v.008h-.008zm-3 6h.008v.008h-.008zm0-6h.008v.008h-.008z"/></svg>