<svg xmlns="http://www.w3.org/2000/svg" width="1em" height="1em" viewBox="0 0 16 16"><path fill="currentColor" fill-rule="evenodd" d="M2.75 9a.75.75 0 0 1 .75.75v1.69l2.22-2.22a.75.75 0 0 1 1.06 1.06L4.56 12.5h1.69a.75.75 0 0 1 0 1.5h-3.5a.75.75 0 0 1-.75-.75v-3.5A.75.75 0 0 1 2.75 9m0-2a.75.75 0 0 0 .75-.75V4.56l2.22 2.22a.75.75 0 0 0 1.06-1.06L4.56 3.5h1.69a.75.75 0 0 0 0-1.5h-3.5a.75.75 0 0 0-.75.75v3.5c0 .414.336.75.75.75m10.5 2a.75.75 0 0 0-.75.75v1.69l-2.22-2.22a.75.75 0 1 0-1.06 1.06l2.22 2.22H9.75a.75.75 0 0 0 0 1.5h3.5a.75.75 0 0 0 .75-.75v-3.5a.75.75 0 0 0-.75-.75m0-2a.75.75 0 0 1-.75-.75V4.56l-2.22 2.22a.75.75 0 1 1-1.06-1.06l2.22-2.22H9.75a.75.75 0 0 1 0-1.5h3.5a.75.75 0 0 1 .75.75v3.5a.75.75 0 0 1-.75.75" clip-rule="evenodd"/></svg>