<svg xmlns="http://www.w3.org/2000/svg" width="1em" height="1em" viewBox="0 0 24 24"><path fill="currentColor" fill-rule="evenodd" d="M8.478 1.6a.75.75 0 0 1 .273 1.026a3.72 3.72 0 0 0-.425 1.121c.058.058.118.114.18.168A4.491 4.491 0 0 1 12 2.25a4.49 4.49 0 0 1 3.497 1.668c.06-.054.12-.11.178-.167a3.717 3.717 0 0 0-.426-1.125a.75.75 0 1 1 1.298-.752a5.22 5.22 0 0 1 .671 2.046a.75.75 0 0 1-.187.582c-.241.27-.505.52-.787.749a4.494 4.494 0 0 1 .216 2.1c-.106.792-.753 1.295-1.417 1.403c-.182.03-.364.057-.547.081c.152.227.273.476.359.742a23.122 23.122 0 0 0 3.832-.803a23.241 23.241 0 0 0-.345-2.634a.75.75 0 0 1 1.474-.28c.21 1.115.348 2.256.404 3.418a.75.75 0 0 1-.516.75a24.698 24.698 0 0 1-4.76 1.049c-.074.38-.22.735-.423 1.05c2.066.209 4.058.672 5.943 1.358a.75.75 0 0 1 .492.75a24.665 24.665 0 0 1-1.189 6.25a.75.75 0 0 1-1.425-.47a23.14 23.14 0 0 0 1.077-5.306c-.5-.169-1.009-.32-1.524-.455c.068.234.104.484.104.746c0 3.956-2.521 7.5-6 7.5c-3.478 0-6-3.544-6-7.5c0-.262.037-.511.104-.746c-.514.135-1.022.286-1.522.455c.154 1.838.52 3.616 1.077 5.307a.75.75 0 1 1-1.425.468a24.662 24.662 0 0 1-1.19-6.25a.75.75 0 0 1 .493-.749a24.586 24.586 0 0 1 4.964-1.24h.01c.321-.046.644-.085.969-.118a2.983 2.983 0 0 1-.424-1.05a24.614 24.614 0 0 1-4.76-1.05a.75.75 0 0 1-.516-.75c.057-1.16.194-2.302.405-3.417a.75.75 0 0 1 1.474.28c-.164.862-.28 1.74-.345 2.634c1.237.371 2.517.642 3.832.803c.085-.266.207-.515.359-.742a18.698 18.698 0 0 1-.547-.08c-.664-.11-1.311-.612-1.417-1.404a4.535 4.535 0 0 1 .217-2.103a6.788 6.788 0 0 1-.788-.751a.75.75 0 0 1-.187-.583a5.22 5.22 0 0 1 .67-2.04a.75.75 0 0 1 1.026-.273" clip-rule="evenodd"/></svg>