<svg xmlns="http://www.w3.org/2000/svg" width="1em" height="1em" viewBox="0 0 20 20"><path fill="currentColor" d="m13.28 7.78l3.22-3.22v2.69a.75.75 0 0 0 1.5 0v-4.5a.75.75 0 0 0-.75-.75h-4.5a.75.75 0 0 0 0 1.5h2.69l-3.22 3.22a.75.75 0 0 0 1.06 1.06M2 17.25v-4.5a.75.75 0 0 1 1.5 0v2.69l3.22-3.22a.75.75 0 0 1 1.06 1.06L4.56 16.5h2.69a.75.75 0 0 1 0 1.5h-4.5a.747.747 0 0 1-.75-.75m10.22-3.97l3.22 3.22h-2.69a.75.75 0 0 0 0 1.5h4.5a.747.747 0 0 0 .75-.75v-4.5a.75.75 0 0 0-1.5 0v2.69l-3.22-3.22a.75.75 0 1 0-1.06 1.06M3.5 4.56l3.22 3.22a.75.75 0 0 0 1.06-1.06L4.56 3.5h2.69a.75.75 0 0 0 0-1.5h-4.5a.75.75 0 0 0-.75.75v4.5a.75.75 0 0 0 1.5 0z"/></svg>