<svg xmlns="http://www.w3.org/2000/svg" width="1em" height="1em" viewBox="0 0 20 20"><path fill="currentColor" fill-rule="evenodd" d="M4.25 2A2.25 2.25 0 0 0 2 4.25v11.5A2.25 2.25 0 0 0 4.25 18h11.5A2.25 2.25 0 0 0 18 15.75V4.25A2.25 2.25 0 0 0 15.75 2zM15 5.75a.75.75 0 0 0-1.5 0v8.5a.75.75 0 0 0 1.5 0zm-8.5 6a.75.75 0 0 0-1.5 0v2.5a.75.75 0 0 0 1.5 0zM8.584 9a.75.75 0 0 1 .75.75v4.5a.75.75 0 0 1-1.5 0v-4.5a.75.75 0 0 1 .75-.75m3.58-1.25a.75.75 0 0 0-1.5 0v6.5a.75.75 0 0 0 1.5 0z" clip-rule="evenodd"/></svg>