<svg xmlns="http://www.w3.org/2000/svg" width="1em" height="1em" viewBox="0 0 20 20"><path fill="currentColor" d="m6.75.98l-.884.883a1.25 1.25 0 1 0 1.768 0zm6.5 0l-.884.883a1.25 1.25 0 1 0 1.768 0zM10 .98l.884.883a1.25 1.25 0 1 1-1.768 0zM7.5 5.75a.75.75 0 0 0-1.5 0v.464c-1.179.305-2 1.39-2 2.622v.094c.1-.02.202-.038.306-.052A42.867 42.867 0 0 1 10 8.5c1.93 0 3.83.129 5.694.378c.104.014.206.032.306.052v-.094c0-1.232-.821-2.317-2-2.622V5.75a.75.75 0 0 0-1.5 0v.318a45.645 45.645 0 0 0-1.75-.062V5.75a.75.75 0 0 0-1.5 0v.256c-.586.01-1.17.03-1.75.062zm-2.995 4.615A41.36 41.36 0 0 1 10 10c1.863 0 3.697.124 5.495.365C16.967 10.562 18 11.838 18 13.28v.693a3.72 3.72 0 0 1-1.665-.393a5.222 5.222 0 0 0-4.67 0a3.722 3.722 0 0 1-3.33 0a5.222 5.222 0 0 0-4.67 0A3.72 3.72 0 0 1 2 13.972v-.693c0-1.441 1.033-2.717 2.505-2.914m11.16 4.555a5.22 5.22 0 0 0 2.335.552V16.5a1.5 1.5 0 0 1-1.5 1.5h-13A1.5 1.5 0 0 1 2 16.5v-1.028c.8 0 1.6-.184 2.335-.551a3.722 3.722 0 0 1 3.33 0c1.47.735 3.2.735 4.67 0a3.722 3.722 0 0 1 3.33 0"/></svg>