<svg xmlns="http://www.w3.org/2000/svg" width="1em" height="1em" viewBox="0 0 16 16"><path fill="currentColor" fill-rule="evenodd" d="M15 11a2 2 0 0 1-2 2H3a2 2 0 0 1-2-2V5a2 2 0 0 1 2-2h10a2 2 0 0 1 2 2zM7.25 7.5a.5.5 0 0 0-.5-.5H3a.5.5 0 0 0-.5.5V8a.5.5 0 0 0 .5.5h3.75a.5.5 0 0 0 .5-.5zm1.5 3a.5.5 0 0 1 .5-.5H13a.5.5 0 0 1 .5.5v.5a.5.5 0 0 1-.5.5H9.25a.5.5 0 0 1-.5-.5zM13.5 8v-.5A.5.5 0 0 0 13 7H9.25a.5.5 0 0 0-.5.5V8a.5.5 0 0 0 .5.5H13a.5.5 0 0 0 .5-.5m-6.75 3.5a.5.5 0 0 0 .5-.5v-.5a.5.5 0 0 0-.5-.5H3a.5.5 0 0 0-.5.5v.5a.5.5 0 0 0 .5.5z" clip-rule="evenodd"/></svg>