<svg xmlns="http://www.w3.org/2000/svg" width="1em" height="1em" viewBox="0 0 24 24"><g fill="currentColor"><path d="M12 .75a8.25 8.25 0 0 0-4.135 15.39c.686.398 1.115 1.008 1.134 1.623a.75.75 0 0 0 .577.706c.352.083.71.148 1.074.195c.323.041.6-.218.6-.544v-4.661a6.714 6.714 0 0 1-.937-.171a.75.75 0 1 1 .374-1.453a5.261 5.261 0 0 0 2.626 0a.75.75 0 1 1 .374 1.452a6.712 6.712 0 0 1-.937.172v4.66a.54.54 0 0 0 .6.545a10.58 10.58 0 0 0 1.074-.195a.75.75 0 0 0 .577-.706c.02-.615.448-1.225 1.134-1.623A8.25 8.25 0 0 0 12 .75"/><path fill-rule="evenodd" d="M9.013 19.9a.75.75 0 0 1 .877-.597a11.319 11.319 0 0 0 4.22 0a.75.75 0 1 1 .28 1.473a12.819 12.819 0 0 1-4.78 0a.75.75 0 0 1-.597-.876m.741 2.444a.75.75 0 0 1 .824-.668a13.682 13.682 0 0 0 2.844 0a.75.75 0 1 1 .156 1.492a15.156 15.156 0 0 1-3.156 0a.75.75 0 0 1-.668-.824" clip-rule="evenodd"/></g></svg>