<svg xmlns="http://www.w3.org/2000/svg" width="1em" height="1em" viewBox="0 0 20 20"><g fill="none"><g clip-path="url(#heroiconsArrowLeftCircle20Solid0)"><path fill="currentColor" fill-rule="evenodd" d="M10 18a8 8 0 1 0 0-16a8 8 0 0 0 0 16m3.25-7.25a.75.75 0 0 0 0-1.5H8.66l2.1-1.95a.75.75 0 1 0-1.02-1.1l-3.5 3.25a.75.75 0 0 0 0 1.1l3.5 3.25a.75.75 0 0 0 1.02-1.1l-2.1-1.95z" clip-rule="evenodd"/></g><defs><clipPath id="heroiconsArrowLeftCircle20Solid0"><path fill="#fff" d="M0 0h20v20H0z"/></clipPath></defs></g></svg>