<svg xmlns="http://www.w3.org/2000/svg" width="1em" height="1em" viewBox="0 0 16 16"><path fill="currentColor" d="M10.325 3H12v5c-.663 0-1.219.466-1.557 1.037a4.02 4.02 0 0 1-1.357 1.377c-.478.292-.907.706-.989 1.26v.005a9.031 9.031 0 0 0 0 2.642c.028.194-.048.394-.224.479A2 2 0 0 1 5 13c0-.812.08-1.605.234-2.371a.521.521 0 0 0-.5-.629H3c-1.104 0-2.01-.898-1.9-1.997a19.827 19.827 0 0 1 1.08-4.788C2.45 2.469 3.178 2 3.973 2h2.703a2 2 0 0 1 .632.103l2.384.794a2 2 0 0 0 .633.103M14 2a1 1 0 0 0-1 1v6a1 1 0 1 0 2 0V3a1 1 0 0 0-1-1"/></svg>