<svg xmlns="http://www.w3.org/2000/svg" width="1em" height="1em" viewBox="0 0 16 16"><path fill="currentColor" fill-rule="evenodd" d="M7.605 2.112a.75.75 0 0 1 .79 0l5.25 3.25A.75.75 0 0 1 13 6.707V12.5h.25a.75.75 0 0 1 0 1.5H2.75a.75.75 0 0 1 0-1.5H3V6.707a.75.75 0 0 1-.645-1.345zM4.5 8.75a.75.75 0 0 1 1.5 0v3a.75.75 0 0 1-1.5 0zM8 8a.75.75 0 0 0-.75.75v3a.75.75 0 0 0 1.5 0v-3A.75.75 0 0 0 8 8m2 .75a.75.75 0 0 1 1.5 0v3a.75.75 0 0 1-1.5 0zM8 6a1 1 0 1 0 0-2a1 1 0 0 0 0 2" clip-rule="evenodd"/></svg>