<svg xmlns="http://www.w3.org/2000/svg" width="1em" height="1em" viewBox="0 0 24 24"><g fill="currentColor"><path d="M13.5 4.06c0-1.336-1.616-2.005-2.56-1.06l-4.5 4.5H4.508c-1.141 0-2.318.664-2.66 1.905A9.76 9.76 0 0 0 1.5 12c0 .898.121 1.768.35 2.595c.341 1.24 1.518 1.905 2.659 1.905h1.93l4.5 4.5c.945.945 2.561.276 2.561-1.06zm5.084 1.046a.75.75 0 0 1 1.06 0c3.808 3.807 3.808 9.98 0 13.788a.75.75 0 0 1-1.06-1.06a8.25 8.25 0 0 0 0-11.668a.75.75 0 0 1 0-1.06"/><path d="M15.932 7.757a.75.75 0 0 1 1.061 0a6 6 0 0 1 0 8.486a.75.75 0 0 1-1.06-1.061a4.5 4.5 0 0 0 0-6.364a.75.75 0 0 1 0-1.06"/></g></svg>