<svg xmlns="http://www.w3.org/2000/svg" width="1em" height="1em" viewBox="0 0 16 16"><g fill="currentColor"><path d="M5.75 7.5a.75.75 0 1 0 0 1.5a.75.75 0 0 0 0-1.5M5 10.25a.75.75 0 1 1 1.5 0a.75.75 0 0 1-1.5 0m5.25-2.75a.75.75 0 1 0 0 1.5a.75.75 0 0 0 0-1.5m-3 .75a.75.75 0 1 1 1.5 0a.75.75 0 0 1-1.5 0M8 9.5A.75.75 0 1 0 8 11a.75.75 0 0 0 0-1.5"/><path fill-rule="evenodd" d="M4.75 1a.75.75 0 0 0-.75.75V3a2 2 0 0 0-2 2v7a2 2 0 0 0 2 2h8a2 2 0 0 0 2-2V5a2 2 0 0 0-2-2V1.75a.75.75 0 0 0-1.5 0V3h-5V1.75A.75.75 0 0 0 4.75 1M3.5 7a1 1 0 0 1 1-1h7a1 1 0 0 1 1 1v4.5a1 1 0 0 1-1 1h-7a1 1 0 0 1-1-1z" clip-rule="evenodd"/></g></svg>