<svg xmlns="http://www.w3.org/2000/svg" width="1em" height="1em" viewBox="0 0 24 24"><path fill="currentColor" fill-rule="evenodd" d="M4.804 21.644A6.707 6.707 0 0 0 6 21.75a6.721 6.721 0 0 0 3.583-1.029c.774.182 1.584.279 2.417.279c5.322 0 9.75-3.97 9.75-9c0-5.03-4.428-9-9.75-9s-9.75 3.97-9.75 9c0 2.409 1.025 4.587 2.674 6.192c.232.226.277.428.254.543a3.73 3.73 0 0 1-.814 1.686a.75.75 0 0 0 .44 1.223M8.25 10.875a1.125 1.125 0 1 0 0 2.25a1.125 1.125 0 0 0 0-2.25M10.875 12a1.125 1.125 0 1 1 2.25 0a1.125 1.125 0 0 1-2.25 0m4.875-1.125a1.125 1.125 0 1 0 0 2.25a1.125 1.125 0 0 0 0-2.25" clip-rule="evenodd"/></svg>