<svg xmlns="http://www.w3.org/2000/svg" width="1em" height="1em" viewBox="0 0 24 24"><path fill="currentColor" fill-rule="evenodd" d="M3 2.25a.75.75 0 0 0 0 1.5v16.5h-.75a.75.75 0 0 0 0 1.5H15v-18a.75.75 0 0 0 0-1.5zM6.75 19.5v-2.25a.75.75 0 0 1 .75-.75h3a.75.75 0 0 1 .75.75v2.25a.75.75 0 0 1-.75.75h-3a.75.75 0 0 1-.75-.75M6 6.75A.75.75 0 0 1 6.75 6h.75a.75.75 0 0 1 0 1.5h-.75A.75.75 0 0 1 6 6.75M6.75 9a.75.75 0 0 0 0 1.5h.75a.75.75 0 0 0 0-1.5zM6 12.75a.75.75 0 0 1 .75-.75h.75a.75.75 0 0 1 0 1.5h-.75a.75.75 0 0 1-.75-.75M10.5 6a.75.75 0 0 0 0 1.5h.75a.75.75 0 0 0 0-1.5zm-.75 3.75A.75.75 0 0 1 10.5 9h.75a.75.75 0 0 1 0 1.5h-.75a.75.75 0 0 1-.75-.75M10.5 12a.75.75 0 0 0 0 1.5h.75a.75.75 0 0 0 0-1.5zm6-5.25v15h5.25a.75.75 0 0 0 0-1.5H21v-12a.75.75 0 0 0 0-1.5zm1.5 4.5a.75.75 0 0 1 .75-.75h.008a.75.75 0 0 1 .75.75v.008a.75.75 0 0 1-.75.75h-.008a.75.75 0 0 1-.75-.75zm.75 2.25a.75.75 0 0 0-.75.75v.008c0 .414.336.75.75.75h.008a.75.75 0 0 0 .75-.75v-.008a.75.75 0 0 0-.75-.75zM18 17.25a.75.75 0 0 1 .75-.75h.008a.75.75 0 0 1 .75.75v.008a.75.75 0 0 1-.75.75h-.008a.75.75 0 0 1-.75-.75z" clip-rule="evenodd"/></svg>