<svg xmlns="http://www.w3.org/2000/svg" width="1em" height="1em" viewBox="0 0 16 16"><g fill="currentColor" fill-rule="evenodd" clip-rule="evenodd"><path d="M11.986 3H12a2 2 0 0 1 2 2v6a2 2 0 0 1-1.5 1.937V7A2.5 2.5 0 0 0 10 4.5H4.063A2 2 0 0 1 6 3h.014A2.25 2.25 0 0 1 8.25 1h1.5a2.25 2.25 0 0 1 2.236 2M10.5 4v-.75a.75.75 0 0 0-.75-.75h-1.5a.75.75 0 0 0-.75.75V4z"/><path d="M3 6a1 1 0 0 0-1 1v7a1 1 0 0 0 1 1h7a1 1 0 0 0 1-1V7a1 1 0 0 0-1-1zm1.75 2.5a.75.75 0 0 0 0 1.5h3.5a.75.75 0 0 0 0-1.5zM4 11.75a.75.75 0 0 1 .75-.75h3.5a.75.75 0 0 1 0 1.5h-3.5a.75.75 0 0 1-.75-.75"/></g></svg>