<svg xmlns="http://www.w3.org/2000/svg" width="1em" height="1em" viewBox="0 0 20 20"><path fill="currentColor" d="M1 4.25a3.733 3.733 0 0 1 2.25-.75h13.5c.844 0 1.623.279 2.25.75A2.25 2.25 0 0 0 16.75 2H3.25A2.25 2.25 0 0 0 1 4.25m0 3a3.733 3.733 0 0 1 2.25-.75h13.5c.844 0 1.623.279 2.25.75A2.25 2.25 0 0 0 16.75 5H3.25A2.25 2.25 0 0 0 1 7.25M7 8a1 1 0 0 1 1 1a2 2 0 1 0 4 0a1 1 0 0 1 1-1h3.75A2.25 2.25 0 0 1 19 10.25v5.5A2.25 2.25 0 0 1 16.75 18H3.25A2.25 2.25 0 0 1 1 15.75v-5.5A2.25 2.25 0 0 1 3.25 8z"/></svg>