<svg xmlns="http://www.w3.org/2000/svg" width="1em" height="1em" viewBox="0 0 20 20"><path fill="currentColor" d="M10 3.75a2 2 0 1 0-4 0a2 2 0 0 0 4 0m7.25.75a.75.75 0 0 0 0-1.5h-5.5a.75.75 0 0 0 0 1.5zM5 3.75a.75.75 0 0 1-.75.75h-1.5a.75.75 0 0 1 0-1.5h1.5a.75.75 0 0 1 .75.75M4.25 17a.75.75 0 0 0 0-1.5h-1.5a.75.75 0 0 0 0 1.5zm13 0a.75.75 0 0 0 0-1.5h-5.5a.75.75 0 0 0 0 1.5zM9 10a.75.75 0 0 1-.75.75h-5.5a.75.75 0 0 1 0-1.5h5.5A.75.75 0 0 1 9 10m8.25.75a.75.75 0 0 0 0-1.5h-1.5a.75.75 0 0 0 0 1.5zM14 10a2 2 0 1 0-4 0a2 2 0 0 0 4 0m-4 6.25a2 2 0 1 0-4 0a2 2 0 0 0 4 0"/></svg>