<svg xmlns="http://www.w3.org/2000/svg" width="1em" height="1em" viewBox="0 0 16 16"><path fill="currentColor" d="M7.628 1.099a.75.75 0 0 1 .744 0l5.25 3a.75.75 0 0 1 0 1.302l-5.25 3a.75.75 0 0 1-.744 0l-5.25-3a.75.75 0 0 1 0-1.302z"/><path fill="currentColor" d="m2.57 7.24l-.192.11a.75.75 0 0 0 0 1.302l5.25 3a.75.75 0 0 0 .744 0l5.25-3a.75.75 0 0 0 0-1.303l-.192-.11l-4.314 2.465a2.25 2.25 0 0 1-2.232 0z"/><path fill="currentColor" d="m2.378 10.6l.192-.11l4.314 2.464a2.25 2.25 0 0 0 2.232 0l4.314-2.465l.192.11a.75.75 0 0 1 0 1.303l-5.25 3a.75.75 0 0 1-.744 0l-5.25-3a.75.75 0 0 1 0-1.303"/></svg>