<svg xmlns="http://www.w3.org/2000/svg" width="1em" height="1em" viewBox="0 0 16 16"><path fill="currentColor" d="M8 8a2.5 2.5 0 1 0 0-5a2.5 2.5 0 0 0 0 5m-4.844 3.763c.16-.629.44-1.21.813-1.72a2.5 2.5 0 0 0-2.725 1.377c-.136.287.102.58.418.58h1.449c.01-.077.025-.156.045-.237m9.691 0c.02.08.036.16.046.237h1.446c.316 0 .554-.293.417-.579a2.5 2.5 0 0 0-2.722-1.378c.374.51.653 1.09.813 1.72M14 7.5a1.5 1.5 0 1 1-3 0a1.5 1.5 0 0 1 3 0M3.5 9a1.5 1.5 0 1 0 0-3a1.5 1.5 0 0 0 0 3M5 13c-.552 0-1.013-.455-.876-.99a4.002 4.002 0 0 1 7.753 0c.136.535-.324.99-.877.99z"/></svg>