<svg xmlns="http://www.w3.org/2000/svg" width="1em" height="1em" viewBox="0 0 24 24"><path fill="currentColor" fill-rule="evenodd" d="M3.22 3.22a.75.75 0 0 1 1.06 0l3.97 3.97V4.5a.75.75 0 0 1 1.5 0V9a.75.75 0 0 1-.75.75H4.5a.75.75 0 0 1 0-1.5h2.69L3.22 4.28a.75.75 0 0 1 0-1.06m17.56 0a.75.75 0 0 1 0 1.06l-3.97 3.97h2.69a.75.75 0 0 1 0 1.5H15a.75.75 0 0 1-.75-.75V4.5a.75.75 0 0 1 1.5 0v2.69l3.97-3.97a.75.75 0 0 1 1.06 0M3.75 15a.75.75 0 0 1 .75-.75H9a.75.75 0 0 1 .75.75v4.5a.75.75 0 0 1-1.5 0v-2.69l-3.97 3.97a.75.75 0 0 1-1.06-1.06l3.97-3.97H4.5a.75.75 0 0 1-.75-.75m10.5 0a.75.75 0 0 1 .75-.75h4.5a.75.75 0 0 1 0 1.5h-2.69l3.97 3.97a.75.75 0 1 1-1.06 1.06l-3.97-3.97v2.69a.75.75 0 0 1-1.5 0z" clip-rule="evenodd"/></svg>