<svg xmlns="http://www.w3.org/2000/svg" width="1em" height="1em" viewBox="0 0 16 16"><path fill="currentColor" d="M3.28 2.22a.75.75 0 0 0-1.06 1.06l4.782 4.783a1 1 0 0 0 .935.935l4.783 4.782a.75.75 0 1 0 1.06-1.06L8.998 7.937a1 1 0 0 0-.935-.935zm-.23 10.73a7.003 7.003 0 0 1-1.33-8.047L2.86 6.04a5.501 5.501 0 0 0 1.25 5.849a.75.75 0 1 1-1.06 1.06m2.21-2.209a3.87 3.87 0 0 1-1.082-3.38L5.87 9.052c.112.226.262.439.45.627a.75.75 0 1 1-1.06 1.061m7.69-7.69a7.003 7.003 0 0 1 1.33 8.048l-1.14-1.139a5.501 5.501 0 0 0-1.25-5.848a.75.75 0 0 1 1.06-1.06M10.74 5.26a3.87 3.87 0 0 1 1.082 3.38L10.13 6.948a2.372 2.372 0 0 0-.45-.627a.75.75 0 0 1 1.06-1.061"/></svg>