<svg xmlns="http://www.w3.org/2000/svg" width="1em" height="1em" viewBox="0 0 24 24"><path fill="none" stroke="currentColor" stroke-linecap="round" stroke-linejoin="round" stroke-width="1.5" d="m3.75 7.5l16.5-4.125M12 6.75a48.3 48.3 0 0 0-7.948.655C2.999 7.58 2.25 8.507 2.25 9.574v9.176A2.25 2.25 0 0 0 4.5 21h15a2.25 2.25 0 0 0 2.25-2.25V9.574c0-1.067-.75-1.994-1.802-2.169A48.329 48.329 0 0 0 12 6.75m-1.683 6.443l-.005.005l-.006-.005l.006-.005zm-.005 2.127l-.005-.006l.005-.005l.005.005zm-2.116-.006l-.005.006l-.006-.006l.005-.005zm-.005-2.116l-.006-.005l.006-.005l.005.005zM9.255 10.5v.008h-.008V10.5zm3.249 1.88l-.007.004l-.003-.007l.006-.003zm-1.38 5.126l-.003-.006l.006-.004l.004.007zm.007-6.501l-.003.006l-.007-.003l.004-.007zm1.37 5.129l-.007-.004l.004-.006l.006.003zm.504-1.877h-.008v-.007h.008zM9.255 18v.008h-.008V18zm-3.246-1.87l-.007.004L6 16.127l.006-.003zm1.366-5.119l-.004-.006l.006-.004l.004.007zM7.38 17.5l-.003.006l-.007-.003l.004-.007zm-1.376-5.116L6 12.38l.003-.007l.007.004zm-.5 1.873h-.008v-.007h.008zM17.25 12.75a.75.75 0 1 1 0-1.5a.75.75 0 0 1 0 1.5m0 4.5a.75.75 0 1 1 0-1.5a.75.75 0 0 1 0 1.5"/></svg>