<svg xmlns="http://www.w3.org/2000/svg" width="1em" height="1em" viewBox="0 0 20 20"><path fill="currentColor" d="M1 1.75A.75.75 0 0 1 1.75 1h1.628a1.75 1.75 0 0 1 1.734 1.51L5.18 3a65.25 65.25 0 0 1 13.36 1.412a.75.75 0 0 1 .58.875a48.645 48.645 0 0 1-1.618 6.2a.75.75 0 0 1-.712.513H6a2.503 2.503 0 0 0-2.292 1.5H17.25a.75.75 0 0 1 0 1.5H2.76a.75.75 0 0 1-.748-.807a4.002 4.002 0 0 1 2.716-3.486L3.626 2.716a.25.25 0 0 0-.248-.216H1.75A.75.75 0 0 1 1 1.75M6 17.5a1.5 1.5 0 1 1-3 0a1.5 1.5 0 0 1 3 0m9.5 1.5a1.5 1.5 0 1 0 0-3a1.5 1.5 0 0 0 0 3"/></svg>