<svg xmlns="http://www.w3.org/2000/svg" width="1em" height="1em" viewBox="0 0 16 16"><path fill="currentColor" fill-rule="evenodd" d="M6.333 4.478A4 4 0 0 0 1 8.25c0 .414.336.75.75.75h3.322A12.78 12.78 0 0 0 7 10.928v3.322c0 .414.336.75.75.75a4 4 0 0 0 3.772-5.333A10.721 10.721 0 0 0 15 1.75a.75.75 0 0 0-.75-.75a10.72 10.72 0 0 0-7.917 3.478M12 5.5a1.5 1.5 0 1 1-3 0a1.5 1.5 0 0 1 3 0" clip-rule="evenodd"/><path fill="currentColor" d="M3.902 10.682a.75.75 0 1 0-1.313-.725a4.764 4.764 0 0 0-.469 3.36a.75.75 0 0 0 .564.563a4.76 4.76 0 0 0 3.359-.47a.75.75 0 1 0-.725-1.312a3.231 3.231 0 0 1-1.81.393a3.232 3.232 0 0 1 .394-1.81"/></svg>