<svg xmlns="http://www.w3.org/2000/svg" width="1em" height="1em" viewBox="0 0 20 20"><path fill="currentColor" d="M16.555 5.412a8.028 8.028 0 0 0-3.503-2.81a14.899 14.899 0 0 1 1.663 4.472a8.547 8.547 0 0 0 1.84-1.662m-3.229 2.413a13.43 13.43 0 0 0-2.413-5.773a8.087 8.087 0 0 0-1.826 0a13.43 13.43 0 0 0-2.413 5.773A8.473 8.473 0 0 0 10 8.5c1.18 0 2.304-.24 3.326-.675M6.514 9.376A9.98 9.98 0 0 0 10 10c1.226 0 2.4-.22 3.486-.624a13.54 13.54 0 0 1-.351 3.759A13.54 13.54 0 0 1 10 13.5c-1.079 0-2.128-.127-3.134-.366a13.538 13.538 0 0 1-.352-3.758M5.285 7.074a14.9 14.9 0 0 1 1.663-4.471a8.028 8.028 0 0 0-3.503 2.81a8.577 8.577 0 0 0 1.84 1.66m12.049-.275a7.973 7.973 0 0 1 .614 4.115a13.47 13.47 0 0 1-3.178 1.72a15.093 15.093 0 0 0 .174-3.939a10.043 10.043 0 0 0 2.39-1.896m-14.668 0a10.042 10.042 0 0 0 2.39 1.896a15.196 15.196 0 0 0 .174 3.94a13.472 13.472 0 0 1-3.178-1.72a7.973 7.973 0 0 1 .615-4.115M10 15c.898 0 1.778-.079 2.633-.23a13.473 13.473 0 0 1-1.72 3.178a8.099 8.099 0 0 1-1.826 0a13.47 13.47 0 0 1-1.72-3.178c.855.151 1.735.23 2.633.23m4.357-.643a14.912 14.912 0 0 1-1.305 3.04a8.027 8.027 0 0 0 4.345-4.345c-.953.542-1.971.981-3.04 1.305m-7.409 3.04a8.027 8.027 0 0 1-4.345-4.345c.953.542 1.971.981 3.04 1.305a14.912 14.912 0 0 0 1.305 3.04"/></svg>