<svg xmlns="http://www.w3.org/2000/svg" width="1em" height="1em" viewBox="0 0 16 16"><path fill="currentColor" fill-rule="evenodd" d="M3.757 4.5c.18.217.376.42.586.608c.153-.61.354-1.175.596-1.678A5.53 5.53 0 0 0 3.757 4.5M8 1a6.994 6.994 0 0 0-7 7a7 7 0 1 0 7-7m0 1.5c-.476 0-1.091.386-1.633 1.427c-.293.564-.531 1.267-.683 2.063A5.48 5.48 0 0 0 8 6.5a5.48 5.48 0 0 0 2.316-.51c-.152-.796-.39-1.499-.683-2.063C9.09 2.886 8.476 2.5 8 2.5m3.657 2.608a8.823 8.823 0 0 0-.596-1.678c.444.298.842.659 1.182 1.07c-.18.217-.376.42-.586.608m-1.166 2.436A6.983 6.983 0 0 1 8 8a6.983 6.983 0 0 1-2.49-.456a10.703 10.703 0 0 0 .202 2.6c.72.231 1.49.356 2.288.356c.798 0 1.568-.125 2.29-.356a10.705 10.705 0 0 0 .2-2.6m1.433 1.85a12.652 12.652 0 0 0 .018-2.609a6.98 6.98 0 0 0 1.117-.947a5.48 5.48 0 0 1 .44 2.262a7.536 7.536 0 0 1-1.575 1.293m-2.172 2.435a9.046 9.046 0 0 1-3.504 0c.039.084.078.166.12.244C6.907 13.114 7.523 13.5 8 13.5s1.091-.386 1.633-1.427c.04-.078.08-.16.12-.244m1.31.74a8.5 8.5 0 0 0 .492-1.298c.457-.197.893-.43 1.307-.696a5.526 5.526 0 0 1-1.8 1.995m-6.123 0a8.507 8.507 0 0 1-.493-1.298a8.985 8.985 0 0 1-1.307-.696a5.526 5.526 0 0 0 1.8 1.995M2.5 8.1c.463.5.993.935 1.575 1.293a12.652 12.652 0 0 1-.018-2.608a7.037 7.037 0 0 1-1.117-.947A5.48 5.48 0 0 0 2.5 8.1" clip-rule="evenodd"/></svg>