<svg xmlns="http://www.w3.org/2000/svg" width="1em" height="1em" viewBox="0 0 20 20"><g fill="currentColor" fill-rule="evenodd" clip-rule="evenodd"><path d="M4.606 12.97a.75.75 0 0 1-.134 1.051a2.494 2.494 0 0 0-.93 2.437a2.494 2.494 0 0 0 2.437-.93a.75.75 0 1 1 1.186.918a3.995 3.995 0 0 1-4.482 1.332a.75.75 0 0 1-.461-.461a3.994 3.994 0 0 1 1.332-4.482a.75.75 0 0 1 1.052.134"/><path d="M5.752 12A13.07 13.07 0 0 0 8 14.248v4.002c0 .414.336.75.75.75a5 5 0 0 0 4.797-6.414a12.984 12.984 0 0 0 5.45-10.848a.75.75 0 0 0-.735-.735a12.984 12.984 0 0 0-10.849 5.45A5 5 0 0 0 1 11.25c.001.414.337.75.751.75zM13 9a2 2 0 1 0 0-4a2 2 0 0 0 0 4"/></g></svg>