<svg xmlns="http://www.w3.org/2000/svg" width="1em" height="1em" viewBox="0 0 20 20"><path fill="currentColor" fill-rule="evenodd" d="M4 8a6 6 0 1 1 12 0c0 1.887.454 3.665 1.257 5.234a.75.75 0 0 1-.515 1.076a32.903 32.903 0 0 1-3.256.508a3.5 3.5 0 0 1-6.972 0a32.91 32.91 0 0 1-3.256-.508a.75.75 0 0 1-.515-1.076A11.448 11.448 0 0 0 4 8m6 7c-.655 0-1.305-.02-1.95-.057a2 2 0 0 0 3.9 0A33.15 33.15 0 0 1 10 15M8.75 6a.75.75 0 0 0 0 1.5h1.043L8.14 9.814A.75.75 0 0 0 8.75 11h2.5a.75.75 0 0 0 0-1.5h-1.043l1.653-2.314A.75.75 0 0 0 11.25 6z" clip-rule="evenodd"/></svg>