<svg xmlns="http://www.w3.org/2000/svg" width="1em" height="1em" viewBox="0 0 16 16"><path fill="currentColor" fill-rule="evenodd" d="M1 8.74c0 .983.713 1.826 1.69 1.943a43.83 43.83 0 0 0 2.31.216v2.351a.75.75 0 0 0 1.28.53l2.51-2.51c.182-.181.427-.286.684-.294a44.298 44.298 0 0 0 3.837-.293C14.287 10.565 15 9.723 15 8.74V4.26c0-.983-.713-1.825-1.69-1.943a44.447 44.447 0 0 0-10.62 0C1.712 2.435 1 3.277 1 4.26zM5.5 6.5a1 1 0 1 1-2 0a1 1 0 0 1 2 0m2.5 1a1 1 0 1 0 0-2a1 1 0 0 0 0 2m3.5 0a1 1 0 1 0 0-2a1 1 0 0 0 0 2" clip-rule="evenodd"/></svg>