<svg xmlns="http://www.w3.org/2000/svg" width="1em" height="1em" viewBox="0 0 16 16"><path fill="currentColor" fill-rule="evenodd" d="M5.37 2.257a1.25 1.25 0 0 1 1.214-.054l3.378 1.69l2.133-1.313A1.25 1.25 0 0 1 14 3.644v7.326c0 .434-.225.837-.595 1.065l-2.775 1.708a1.25 1.25 0 0 1-1.214.053l-3.378-1.689l-2.133 1.313A1.25 1.25 0 0 1 2 12.355V5.029c0-.434.225-.837.595-1.064zM6 4a.75.75 0 0 1 .75.75v4.5a.75.75 0 0 1-1.5 0v-4.5A.75.75 0 0 1 6 4m4.75 2.75a.75.75 0 0 0-1.5 0v4.5a.75.75 0 0 0 1.5 0z" clip-rule="evenodd"/></svg>