<svg xmlns="http://www.w3.org/2000/svg" width="1em" height="1em" viewBox="0 0 20 20"><path fill="currentColor" fill-rule="evenodd" d="M13.5 4.938a7 7 0 1 1-9.006 1.737c.202-.257.59-.218.793.039c.278.352.594.672.943.954c.332.269.786-.049.773-.476a5.977 5.977 0 0 1 .572-2.759a6.026 6.026 0 0 1 2.486-2.665c.247-.14.55-.016.677.238A6.967 6.967 0 0 0 13.5 4.938M14 12a4 4 0 0 1-4 4c-1.913 0-3.52-1.398-3.91-3.182c-.093-.429.44-.643.814-.413a4.043 4.043 0 0 0 1.601.564c.303.038.531-.24.51-.544a5.975 5.975 0 0 1 1.315-4.192a.447.447 0 0 1 .431-.16A4.001 4.001 0 0 1 14 12" clip-rule="evenodd"/></svg>