<svg xmlns="http://www.w3.org/2000/svg" width="1em" height="1em" viewBox="0 0 20 20"><path fill="currentColor" d="M17 2.75a.75.75 0 0 0-1.5 0v5.5a.75.75 0 0 0 1.5 0zm0 13a.75.75 0 0 0-1.5 0v1.5a.75.75 0 0 0 1.5 0zM3.75 15a.75.75 0 0 1 .75.75v1.5a.75.75 0 0 1-1.5 0v-1.5a.75.75 0 0 1 .75-.75M4.5 2.75a.75.75 0 0 0-1.5 0v5.5a.75.75 0 0 0 1.5 0zM10 11a.75.75 0 0 1 .75.75v5.5a.75.75 0 0 1-1.5 0v-5.5A.75.75 0 0 1 10 11m.75-8.25a.75.75 0 0 0-1.5 0v1.5a.75.75 0 0 0 1.5 0zM10 6a2 2 0 1 0 0 4a2 2 0 0 0 0-4m-6.25 4a2 2 0 1 0 0 4a2 2 0 0 0 0-4m12.5 0a2 2 0 1 0 0 4a2 2 0 0 0 0-4"/></svg>