<svg xmlns="http://www.w3.org/2000/svg" width="1em" height="1em" viewBox="0 0 24 24"><path fill="currentColor" fill-rule="evenodd" d="M5.636 4.575a.75.75 0 0 1 0 1.061a9 9 0 0 0 0 12.728a.75.75 0 1 1-1.06 1.06c-4.101-4.1-4.101-10.748 0-14.849a.75.75 0 0 1 1.06 0m12.728 0a.75.75 0 0 1 1.06 0c4.101 4.1 4.101 10.75 0 14.85a.75.75 0 1 1-1.06-1.061a9 9 0 0 0 0-12.728a.75.75 0 0 1 0-1.06M7.757 6.697a.75.75 0 0 1 0 1.06a6 6 0 0 0 0 8.486a.75.75 0 0 1-1.06 1.06a7.5 7.5 0 0 1 0-10.606a.75.75 0 0 1 1.06 0m8.486 0a.75.75 0 0 1 1.06 0a7.5 7.5 0 0 1 0 10.606a.75.75 0 0 1-1.06-1.06a6 6 0 0 0 0-8.486a.75.75 0 0 1 0-1.06M9.879 8.818a.75.75 0 0 1 0 1.06a3 3 0 0 0 0 4.243a.75.75 0 1 1-1.061 1.061a4.5 4.5 0 0 1 0-6.364a.75.75 0 0 1 1.06 0m4.242 0a.75.75 0 0 1 1.061 0a4.5 4.5 0 0 1 0 6.364a.75.75 0 0 1-1.06-1.06a3 3 0 0 0 0-4.243a.75.75 0 0 1 0-1.061M10.875 12a1.125 1.125 0 1 1 2.25 0a1.125 1.125 0 0 1-2.25 0" clip-rule="evenodd"/></svg>