<svg xmlns="http://www.w3.org/2000/svg" width="1em" height="1em" viewBox="0 0 24 24"><path fill="currentColor" d="M6 12a.75.75 0 0 1-.75-.75v-7.5a.75.75 0 1 1 1.5 0v7.5A.75.75 0 0 1 6 12m12 0a.75.75 0 0 1-.75-.75v-7.5a.75.75 0 0 1 1.5 0v7.5A.75.75 0 0 1 18 12M6.75 20.25v-1.5a.75.75 0 0 0-1.5 0v1.5a.75.75 0 0 0 1.5 0m12-1.5v1.5a.75.75 0 0 1-1.5 0v-1.5a.75.75 0 0 1 1.5 0m-6-13.5v-1.5a.75.75 0 0 0-1.5 0v1.5a.75.75 0 0 0 1.5 0M12 21a.75.75 0 0 1-.75-.75v-7.5a.75.75 0 0 1 1.5 0v7.5A.75.75 0 0 1 12 21m-8.25-6a2.25 2.25 0 1 0 4.5 0a2.25 2.25 0 0 0-4.5 0M12 11.25a2.25 2.25 0 1 1 0-4.5a2.25 2.25 0 0 1 0 4.5M15.75 15a2.25 2.25 0 1 0 4.5 0a2.25 2.25 0 0 0-4.5 0"/></svg>