<svg xmlns="http://www.w3.org/2000/svg" width="1em" height="1em" viewBox="0 0 24 24"><g fill="currentColor"><path d="M11.25 3v4.046a3 3 0 0 0-4.277 4.204H1.5v-6A2.25 2.25 0 0 1 3.75 3zm1.5 0v4.011a3 3 0 0 1 4.239 4.239H22.5v-6A2.25 2.25 0 0 0 20.25 3zm9.75 9.75h-8.983a4.125 4.125 0 0 0 4.108 3.75a.75.75 0 0 1 0 1.5a5.623 5.623 0 0 1-4.875-2.817V21h7.5a2.25 2.25 0 0 0 2.25-2.25zM11.25 21v-5.817A5.623 5.623 0 0 1 6.375 18a.75.75 0 0 1 0-1.5a4.126 4.126 0 0 0 4.108-3.75H1.5v6A2.25 2.25 0 0 0 3.75 21z"/><path d="M11.086 10.354c.03.297.037.575.035.805a7.484 7.484 0 0 1-.805-.036c-.833-.084-1.677-.325-2.195-.843a1.5 1.5 0 0 1 2.122-2.12c.517.517.759 1.36.842 2.194m1.792 0c-.03.297-.038.575-.036.805c.23.002.508-.006.805-.036c.833-.084 1.677-.325 2.195-.843a1.5 1.5 0 0 0-2.121-2.12c-.518.518-.76 1.362-.843 2.194"/></g></svg>