<svg xmlns="http://www.w3.org/2000/svg" width="1em" height="1em" viewBox="0 0 24 24"><path fill="currentColor" fill-rule="evenodd" d="M3.75 4.5a.75.75 0 0 1 .75-.75h.75c8.284 0 15 6.716 15 15v.75a.75.75 0 0 1-.75.75h-.75a.75.75 0 0 1-.75-.75v-.75C18 11.708 12.292 6 5.25 6H4.5a.75.75 0 0 1-.75-.75zm0 6.75a.75.75 0 0 1 .75-.75h.75a8.25 8.25 0 0 1 8.25 8.25v.75a.75.75 0 0 1-.75.75H12a.75.75 0 0 1-.75-.75v-.75a6 6 0 0 0-6-6H4.5a.75.75 0 0 1-.75-.75zm0 7.5a1.5 1.5 0 1 1 3 0a1.5 1.5 0 0 1-3 0" clip-rule="evenodd"/></svg>