<svg xmlns="http://www.w3.org/2000/svg" width="1em" height="1em" viewBox="0 0 24 24"><path fill="currentColor" fill-rule="evenodd" d="M12 2.25a.75.75 0 0 1 .75.75v.756a49.106 49.106 0 0 1 9.152 1a.75.75 0 0 1-.152 1.485h-1.918l2.474 10.124a.75.75 0 0 1-.375.84A6.723 6.723 0 0 1 18.75 18a6.723 6.723 0 0 1-3.181-.795a.75.75 0 0 1-.375-.84l2.474-10.124H12.75v13.28c1.293.076 2.534.343 3.697.776a.75.75 0 0 1-.262 1.453h-8.37a.75.75 0 0 1-.262-1.453c1.162-.433 2.404-.7 3.697-.775V6.24H6.332l2.474 10.124a.75.75 0 0 1-.375.84A6.723 6.723 0 0 1 5.25 18a6.723 6.723 0 0 1-3.181-.795a.75.75 0 0 1-.375-.84L4.168 6.241H2.25a.75.75 0 0 1-.152-1.485a49.105 49.105 0 0 1 9.152-1V3a.75.75 0 0 1 .75-.75m4.878 13.543l1.872-7.662l1.872 7.662zm-9.756 0L5.25 8.131l-1.872 7.662z" clip-rule="evenodd"/></svg>