<svg xmlns="http://www.w3.org/2000/svg" width="1em" height="1em" viewBox="0 0 16 16"><g fill="currentColor"><path fill-rule="evenodd" d="M1 3a1 1 0 0 1 1-1h12a1 1 0 0 1 1 1v6a1 1 0 0 1-1 1H2a1 1 0 0 1-1-1zm9 3a2 2 0 1 1-4 0a2 2 0 0 1 4 0m-6.25-.75a.75.75 0 1 0 0 1.5a.75.75 0 0 0 0-1.5M11.5 6A.75.75 0 1 1 13 6a.75.75 0 0 1-1.5 0" clip-rule="evenodd"/><path d="M13 11.75a.75.75 0 0 0-1.5 0v.179c0 .15-.138.28-.306.255A65.277 65.277 0 0 0 1.75 11.5a.75.75 0 0 0 0 1.5c3.135 0 6.215.228 9.227.668A1.764 1.764 0 0 0 13 11.928z"/></g></svg>