<svg xmlns="http://www.w3.org/2000/svg" width="1em" height="1em" viewBox="0 0 16 16"><path fill="currentColor" fill-rule="evenodd" d="M1.75 2a.75.75 0 0 0 0 1.5H2V9a2 2 0 0 0 2 2h.043l-1.004 3.013a.75.75 0 0 0 1.423.474L4.624 14h6.752l.163.487a.75.75 0 1 0 1.422-.474L11.958 11H12a2 2 0 0 0 2-2V3.5h.25a.75.75 0 0 0 0-1.5zm8.626 9l.5 1.5H5.124l.5-1.5zM5.25 7a.75.75 0 0 0-.75.75v.5a.75.75 0 0 0 1.5 0v-.5A.75.75 0 0 0 5.25 7M10 4.75a.75.75 0 0 1 1.5 0v3.5a.75.75 0 0 1-1.5 0zM8 5.5a.75.75 0 0 0-.75.75v2a.75.75 0 0 0 1.5 0v-2A.75.75 0 0 0 8 5.5" clip-rule="evenodd"/></svg>