<svg xmlns="http://www.w3.org/2000/svg" width="1em" height="1em" viewBox="0 0 24 24"><g fill="currentColor"><path d="M12 9a3.75 3.75 0 1 0 0 7.5A3.75 3.75 0 0 0 12 9"/><path fill-rule="evenodd" d="M9.344 3.071a49.52 49.52 0 0 1 5.312 0c.967.052 1.83.585 2.332 1.39l.821 1.317c.24.383.645.643 1.11.71c.386.054.77.113 1.152.177c1.432.239 2.429 1.493 2.429 2.909V18a3 3 0 0 1-3 3h-15a3 3 0 0 1-3-3V9.574c0-1.416.997-2.67 2.429-2.909c.382-.064.766-.123 1.151-.178a1.56 1.56 0 0 0 1.11-.71l.822-1.315a2.942 2.942 0 0 1 2.332-1.39M6.75 12.75a5.25 5.25 0 1 1 10.5 0a5.25 5.25 0 0 1-10.5 0m12-1.5a.75.75 0 1 0 0-1.5a.75.75 0 0 0 0 1.5" clip-rule="evenodd"/></g></svg>